<?xml version="1.0" encoding="UTF-8"?>
<svg id="Layer_2" data-name="Layer 2" xmlns="http://www.w3.org/2000/svg" viewBox="0 0 659.26 237.81">
  <defs>
    <style>
      .cls-1 {
        fill: #43b64b;
      }

      .cls-1, .cls-2, .cls-3, .cls-4, .cls-5, .cls-6, .cls-7, .cls-8, .cls-9, .cls-10 {
        stroke-width: 0px;
      }

      .cls-2 {
        fill: #4cb74f;
      }

      .cls-3 {
        fill: #4bb74e;
      }

      .cls-4 {
        fill: #4eb850;
      }

      .cls-5 {
        fill: #52b952;
      }

      .cls-6 {
        fill: #48b74d;
      }

      .cls-7 {
        fill: #42b64b;
      }

      .cls-8 {
        fill: #45b64c;
      }

      .cls-9 {
        fill: #55b954;
      }

      .cls-10 {
        fill: #41b64b;
      }
    </style>
  </defs>
  <g id="Layer_1-2" data-name="Layer 1">
    <g>
      <path class="cls-1" d="m73.93,150.38l-.7-41c1.13-13.3,11.5-7.64,20.03-7.71,56.03-.42,67.58-74.49,12.04-87.27-17.6-1.22-35.39-1.34-53.07-1.53l-1.36,42,6-.11,16.72-35.1,13.23,51.46c1.01.03.99-2.41,1.14-3.25.86-4.97,3.11-26.06,5.32-28.55,7.59-8.58,10.41,15.9,10.51,19.59l22.35,2.74-25.43,3.45c-1.79.06-1.09-2.93-3.04-3.46l-10.17,28.45-15.27-46.06-7.18,21.6-26.38-.6L39.35,0c34.98,4.33,75.68-9.83,102.07,20.32,37.31,42.61-.37,102.9-53.92,94.17l-.68,47.41h-42.72v-74.17c0-.07-.95-1.02-1.02-1.02H3.07c-3.13,0-5.24-8.47.72-9.44,14.76,1.19,32.36-1.73,46.77-.05,3.01.35,4.86,2.02,5.09,5.08l.66,68.09h17.62Z"/>
      <path class="cls-10" d="m484.21,75.86h-16.61c-3.08-4.41-2.6-15.94-5.15-19.92-2.52-3.94-18.21-4.19-22.64-3.78-35.42,3.25-35.27,65.67-20.03,87.73,9.78,14.15,28.41,14.01,42.41,6.43l.29-33.84-16.92-1.39v-10.84h50.18v10.84c-1.84.11-8.2.22-8.72,1.79l-.13,40.86c-27.8,6.45-60.36,16.02-85.06-4.05-27.34-22.22-26.8-75.41,2.13-96.06,23.37-16.68,54.41-12.33,80.95-7.25,2.16,1.5-1.42,25.28-.7,29.48Z"/>
      <path class="cls-10" d="m653.07,152.41c.29.29,5.81-.3,6.11,0,.25.25-.2,5.26.04,6.36-6.73,1.59-21.93,5.92-20.72-5.68-16.34,15.21-40.94,6.99-43.05-15.93-2.48-26.8,16-42.23,42.03-37.58v-17.27c-1.72-2.09-9.34-.93-10.9-1.99-.88-.6-.88-6.26-.64-6.48.81-.76,19.2-1.16,22.05-2.08,1.22-.46,5.07,1.54,5.07,2.42v78.23h.01Zm-28.67-45.91c-12.58,2.55-13.2,24.46-10.77,34.16,2.98,11.88,15.55,14.77,23.7,5.85l.17-35.79c-.48-5.14-9.3-4.99-13.1-4.22Z"/>
      <path class="cls-7" d="m168.87,139.88c.6,6.29,2.54,11.92,9.83,11.9,2.96-.01,10.37-2.52,11.91-5.08,2.59-4.3-.66-31.3.64-37.99-.17-2.87-7.35-2.26-8.08-3.11-.31-.36-.74-7.16,1.62-6.71l19.03-1.28c.52.38,3.01,1.12,3.01,1.29v53.51h6.78l.04,6.38c-7.24,1.66-22.4,5.87-21.07-6.38-7.45,8.21-27.05,12.14-34.88,3.35-8.78-9.86-3.78-35.69-5.09-48.32-6.38-1.62-5.79-2.05-5.47-8.54l19.25-1.16,2.46,1.5c.93,13.08-1.2,27.75.02,40.64Z"/>
      <path class="cls-7" d="m371.64,130.05h-36.62c-.36,20.78,17.34,25.71,33.52,16.27.8.17,3.58,5.7,3.01,6.66-.92,1.56-11.81,5.99-14.15,6.54-19.5,4.57-37.4-2.96-39.33-24.4-2.06-22.87,10.82-37.99,34.26-36.26,18.05,1.34,22.44,15.31,19.31,31.19Zm-14.92-6.77c.41-9.13-.61-17.95-11.9-16.97-8.54.75-9.99,9.96-9.8,16.97h21.7Z"/>
      <path class="cls-1" d="m305.86,101.6v14.22h-9.49c-.89-3.37-.91-7.92-4.36-9.53-10.77-5-23.23,4.96-11.46,12.8,10.16,6.76,30.41,7.56,29.42,24.86-1.23,21.43-35.82,17.82-49.54,12.51v-14.9h10.17c.47,2.24,1.25,7.59,2.73,9.13,3.78,3.93,18.65,4.47,20.18-2.16.65-2.81.23-5.33-2.07-7.2-9.87-8.04-31.23-7.85-30.87-25.85.39-19.9,32.25-18.19,45.29-13.88Z"/>
      <path class="cls-7" d="m244.15,152.41c1.16.19,7.84.4,8.14.68.25.23-.18,5.64,0,6.78h-32.55c.18-1.14-.25-6.54,0-6.78.3-.28,6.98-.48,8.14-.68v-71.8c-1.16-.19-7.84-.4-8.14-.68-.25-.23.18-5.64,0-6.78,3.4.69,24.42-4.62,24.42.34v78.92h-.01Z"/>
      <path class="cls-8" d="m503.2,159.86c-2.24-10.18,5.61-5.19,7.16-7.41,1.73-2.48-.73-35.25.33-40.92-7.62-2.14-7.27-2.65-6.82-10.61l16.65-2.06c7.94.18,2.52,12.83,4.04,12.91,3.32-5.86,10.77-12.12,17.63-12.88,1.32-.15,7.8-.37,7.8,1.02v16.6c-3.15-1.28-6.24-2.84-9.8-2.73-2.12.07-13.26,3.21-13.26,5.1v33.53c3,1.23,11.17-.14,13.17,1.28.98.7.12,4.8.39,6.17h-37.29Z"/>
      <path class="cls-6" d="m556.09,159.86c-1.07-7.32,1.55-7.76,8.14-7.45l.03-40.34c.72-3.47-7.25-2.76-8.11-3.76-.49-.57.22-6.62-.07-8.07,4.91.71,22.18-4.68,24.75.01l.34,52.15c1.08-.15,7.12.39,7.43.71.37.38-.19,5.53.04,6.74h-32.55Z"/>
      <path class="cls-5" d="m44.77,194.4c11.84-3.52,29.04,3.16,15.6,15.57,6.06,1.34,7.64,8.59,4.37,13.52-3.57,5.39-14.28,5.36-19.97,4.1v-33.19Zm4.75,13.55c14.48,2.09,14.67-12.48,0-10.16v10.16Zm0,16.26c15.52,2.33,15.95-14.8,0-12.19v12.19Z"/>
      <path class="cls-4" d="m347.22,225.9c-14.58,7.5-31.96-2.99-26.93-20.13,3.35-11.43,15.96-14.08,26.26-10.69-.54,6.54-4.47,2.49-9.16,2.66-19.97.71-15.19,32.13,5.09,25.78v-9.48h-6.78v-4.07h11.53v15.93h0Z"/>
      <path class="cls-2" d="m144.46,226.24v10.5c0,1.42-5.43,1.42-5.43,0v-33.53c3.92.11,5.4-1.31,4.75,3.39,18.67-15.73,26.76,21.25,7.79,21.73-3.08.08-4.45-1.12-7.11-2.09Zm5.26-19.52c-7.69,1.28-7.6,15.93-1.39,17.35,12.77,2.9,11.35-19.01,1.39-17.35Z"/>
      <path class="cls-2" d="m402.15,192.37v35.22c-3.49-.06-4.16,1.08-4.41-2.72-4.57,4.38-11.7,4.95-15.83-.43-8.28-10.77,3.29-28.96,15.5-18.53v-13.55h4.74Zm-15.38,15.79c-5.13,4.53-3.05,18.74,6.61,15.74,8.95-2.78,2.77-24.03-6.61-15.74Z"/>
      <path class="cls-3" d="m479.46,192.37v35.22c-.84-.15-3.86.22-4.07,0-.33-.33.53-2.89-.33-3.39-5.43,6.85-15.05,4.8-17.66-3.37-3.76-11.8,6.27-23.47,17.31-14.92v-13.55h4.75Zm-12.37,14.36c-8.14,1.53-8.01,19,2.49,17.46,7.94-1.17,7.11-19.27-2.49-17.46Z"/>
      <path class="cls-6" d="m217.7,214.73v12.87h-4.07v-33.19c6.39-1.02,18.46-1.73,20.19,6.59,2.19,10.57-7.09,14.79-16.12,13.73Zm0-16.94v12.87c15.31,3.36,16.61-15.89,0-12.87Z"/>
      <path class="cls-1" d="m568.1,71.94c4.65-1.04,11.36-.06,12.76,5.26,2.44,9.27-5.47,14.08-13.94,11.9-8.19-2.12-6.49-15.45,1.18-17.16Z"/>
      <path class="cls-5" d="m243.47,203.21v17.27c0,.43,2.1,3.09,2.72,3.38,3.17,1.46,8.13-1.63,8.13-4.73v-15.92h4.75v24.39c-2.46,1.26-4.55-1.45-5.06-1.43-1.68.06-3.1,1.61-4.92,1.95-7.59,1.42-10.4-3.64-11.02-10.35-.25-2.73-.46-10.42-.01-12.86.47-2.64,3.35-1.53,5.41-1.7Z"/>
      <path class="cls-3" d="m121.91,202.7c15.93-.95,16.71,24.34,1.87,25.58-17.25,1.45-17.47-24.65-1.87-25.58Zm5.39,19.95c5.2-5.65,1.4-19.26-7.76-15.54-9.79,3.99-.91,24.95,7.76,15.54Z"/>
      <path class="cls-5" d="m316.71,216.76h-16.95c-.02,1.78,1.14,5.04,2.54,6.11,3.74,2.86,11.86.26,12.34.69.13.11.49,2.74.72,3.35-7.18,2.55-17.23,2.27-19.7-6.4-5.7-19.93,22.45-25.4,21.05-3.75Zm-4.75-3.39c.08-9.52-11.63-8.95-12.21,0h12.21Z"/>
      <path class="cls-5" d="m91.56,216.76h-16.95c-.02,1.78,1.14,5.04,2.54,6.11,3.74,2.86,11.86.26,12.34.69.13.11.49,2.74.72,3.35-7.18,2.55-17.23,2.27-19.7-6.4-5.7-19.93,22.46-25.4,21.05-3.75Zm-4.74-3.39c.08-9.52-11.63-8.95-12.21,0h12.21Z"/>
      <path class="cls-3" d="m196.67,227.59c-2.46-.24-5.06,1.21-5.08-2.03-5.19,5.08-15.19,2.87-14.63-5.07.49-6.85,8.71-8.56,14.29-8.48.34-9.36-8.91-3.47-11.11-4.1-1.13-.32-1.51-2.61-1.03-3.28.28-.4,6.75-1.98,7.74-1.97,13.75.17,7.4,16.45,9.82,24.93Zm-4.74-12.19c-4.38-1.12-13.27,2.62-9.54,7.84,3.81,5.36,11.57-2.31,9.54-7.84Z"/>
      <path class="cls-3" d="m96.99,207.28c-.24-.24-3.15.24-3.39,0-.15-.14-.15-3.93,0-4.07.25-.24,3.15.25,3.4.01.6-.59-1.71-7.94,5.42-6.1.19,1.08-.26,5.85-.01,6.1.64.64,6.53-1.64,6.15,2.36-.29,3.04-5.58,1.13-6.15,1.69-.53.53-.17,14.06.14,15.11.67,2.27,3.48,1.89,5.29,1.83.89,7.69-10.85,4.22-10.85-2.37,0-2.06.52-14.06,0-14.56Z"/>
      <path class="cls-9" d="m443.52,207.28c-.21-.21-3.24.15-4.07,0v-4.07c7.05,1.25,2.58-2.94,4.37-5.46.55-.77,3.1-.85,4.1-1.32.87-.03,0,6.44.34,6.79.26.26,5.03-.19,6.11-.01v4.07h-6.11v15.24c0,.26,1.33,1.41,1.84,1.56,2.92.84,3.78-1.36,4.27,3.51-2.56.97-7.29,1.16-9.31-.85-.17-.16-1.54-2.7-1.54-2.86,0-2.3.59-16.02,0-16.6Z"/>
      <path class="cls-4" d="m290.17,203.98c.41.65-.05,2.38.09,3.3-.46.47-9.51-2.6-9.51,2.37,0,2.75,5.46,3.84,7.28,4.94,6.4,3.88,4.24,12.32-3.01,13.52-2.16.36-8.77.39-9.04-2.21-.52-5.12,8.6.88,10.56-3.04,2.23-4.47-3.58-5.24-6.13-6.76-8.14-4.86-3.59-13.49,4.66-13.31.76,0,4.9.87,5.1,1.19Z"/>
      <polygon class="cls-8" points="423.85 194.4 423.85 223.53 438.09 223.53 438.09 227.6 419.78 227.6 419.78 194.4 423.85 194.4"/>
      <rect class="cls-9" x="265.85" y="192.37" width="4.75" height="35.22"/>
      <path class="cls-5" d="m353.33,203.21h4.07l.34,4.07c1.58-3.32,4.15-4.54,7.8-4.07.96,6.11-1.55,3.07-4.72,5.12-.69.45-2.75,3.61-2.75,4.03v15.24h-4.75v-24.39h.01Z"/>
      <rect class="cls-2" x="167.52" y="203.21" width="4.75" height="24.39"/>
      <rect class="cls-9" x="369.6" y="203.21" width="4.75" height="24.39"/>
      <path class="cls-9" d="m374.18,194.57c3.12,3.15-2.03,7.54-4.65,4.29-2.46-3.05,2.08-6.88,4.65-4.29Z"/>
      <path class="cls-4" d="m167.62,194.51c3.27-2.06,7.29,2.97,3.98,4.99-3.95,2.4-6.15-3.63-3.98-4.99Z"/>
    </g>
  </g>
</svg>